<svg class="logo__img" viewBox="0 0 139 42" xmlns="http://www.w3.org/2000/svg" role="img" aria-labelledby="logo-title"><title id="logo-title">move elevator</title><g fill="#ff6418"><path d="M24.4825 2.19561C24.1385 1.52155 23.6219 0.988173 22.9327 0.591947C22.2435 0.196893 21.3365 -4.84358e-05 20.2129 -4.84358e-05C19.2944 -4.84358e-05 18.4163 0.157035 17.5789 0.470031C16.7402 0.783026 15.9607 1.20739 15.2379 1.74194C14.8881 1.99984 14.5545 2.27884 14.2348 2.57425C14.1815 2.44647 14.1282 2.31752 14.0668 2.19444C13.7344 1.52038 13.2235 0.987001 12.5343 0.590774C11.8463 0.19572 10.9277 -0.0012207 9.77981 -0.0012207C8.86125 -0.0012207 7.98323 0.155863 7.14576 0.468859C6.30712 0.781854 5.53336 1.20621 4.82098 1.74077C4.52445 1.9635 4.2395 2.20381 3.96266 2.45468L3.37422 0.383283H0V17.4245H4.51055V6.41812C4.92407 5.95507 5.39204 5.54947 5.92256 5.20951C6.70327 4.71012 7.506 4.46043 8.33305 4.46043C8.90642 4.46043 9.40103 4.6351 9.8134 4.98326C10.2269 5.33142 10.4331 6.02892 10.4331 7.07458V17.4245H14.9437V7.10858C14.9437 6.88116 14.939 6.65491 14.9321 6.43101C15.3491 5.9621 15.8205 5.55298 16.3557 5.20951C17.1364 4.71012 17.9391 4.46043 18.7662 4.46043C19.3395 4.46043 19.8283 4.6351 20.2291 4.98326C20.6311 5.33142 20.8315 6.02892 20.8315 7.07458V17.4245H25.3768V7.10858C25.3768 6.20242 25.3131 5.32556 25.188 4.47801C25.0617 3.63046 24.8266 2.86966 24.4825 2.19561Z"></path><path d="M40.2381 1.13241C38.9176 0.37747 37.3851 0 35.6407 0C33.8962 0 32.3638 0.37747 31.0433 1.13241C29.7228 1.88735 28.6953 2.93301 27.961 4.2694C27.2266 5.60578 26.8594 7.15669 26.8594 8.92096C26.8594 10.6852 27.2266 12.2373 27.961 13.5737C28.6953 14.9101 29.7228 15.9546 31.0433 16.7095C32.3626 17.4644 33.8951 17.8419 35.6407 17.8419C37.3863 17.8419 38.9176 17.4644 40.2381 16.7095C41.5575 15.9546 42.5849 14.9089 43.3205 13.5737C44.0548 12.2385 44.422 10.6876 44.422 8.92096C44.422 7.15435 44.0548 5.60578 43.3205 4.2694C42.5849 2.93419 41.5586 1.88852 40.2381 1.13241ZM38.9026 12.4131C38.0616 13.3134 36.9739 13.7648 35.6395 13.7648C34.3051 13.7648 33.2233 13.3146 32.3951 12.4131C31.5668 11.5128 31.1533 10.3371 31.1533 8.88579C31.1533 7.43452 31.5668 6.26577 32.3951 5.37719C33.2233 4.48978 34.3051 4.04432 35.6395 4.04432C36.9739 4.04432 38.0616 4.49447 38.9026 5.39595C39.7424 6.29625 40.164 7.47321 40.164 8.9233C40.164 10.3734 39.7435 11.5128 38.9026 12.4131Z"></path><path d="M56.4246 0.383301L52.7122 11.807L48.8491 0.383301H44.0977L50.5716 17.4234H54.9095L61.073 0.383301H56.4246Z"></path><path d="M73.695 1.14999C72.444 0.383332 70.9683 0 69.2701 0C67.572 0 66.1253 0.37747 64.8627 1.13241C63.6001 1.88735 62.6248 2.93301 61.9356 4.2694C61.2464 5.60578 60.9023 7.15669 60.9023 8.92095C60.9023 10.6852 61.2464 12.2666 61.9356 13.5913C62.6236 14.9159 63.6001 15.9428 64.8627 16.6755C66.1253 17.407 67.594 17.7739 69.2701 17.7739C71.1061 17.7739 72.6733 17.3965 73.9707 16.6415C75.2668 15.8866 76.2954 14.801 77.053 13.3838L73.9197 11.5715C73.4378 12.2912 72.8633 12.8961 72.1984 13.3838C71.5324 13.8714 70.615 14.1153 69.4439 14.1153C68.1118 14.1153 67.0624 13.7261 66.2932 12.9477C65.6249 12.2713 65.2473 11.371 65.1604 10.2468H77.536C77.5812 10.0838 77.6101 9.88104 77.6217 9.63721C77.6333 9.39338 77.6391 9.14369 77.6391 8.88813C77.6391 7.16959 77.2951 5.64212 76.6059 4.30574C75.9167 2.97053 74.9471 1.919 73.6961 1.15234L73.695 1.14999ZM69.2701 3.58948C70.6937 3.58948 71.7432 4.04315 72.4208 4.94814C72.8193 5.48152 73.0973 6.11103 73.2618 6.82963H65.2334C65.3874 6.00553 65.7326 5.31272 66.2735 4.75589C67.0311 3.9775 68.0296 3.58831 69.269 3.58831L69.2701 3.58948Z"></path><path d="M84.3923 12.188C83.9556 11.9254 83.4552 11.793 82.8934 11.793C82.3733 11.793 81.8891 11.9254 81.4409 12.188C80.9926 12.4518 80.6335 12.8046 80.3636 13.2466C80.0926 13.6885 79.957 14.1949 79.957 14.7635C79.957 15.2898 80.0926 15.7799 80.3636 16.2335C80.6335 16.6872 80.9926 17.0447 81.4409 17.3073C81.888 17.5711 82.3722 17.7024 82.8934 17.7024C83.4552 17.7024 83.9556 17.5711 84.3923 17.3073C84.829 17.0447 85.1834 16.686 85.4545 16.2335C85.7244 15.781 85.8599 15.291 85.8599 14.7635C85.8599 14.1949 85.7244 13.6897 85.4545 13.2466C85.1834 12.8046 84.8301 12.4518 84.3923 12.188Z"></path><path d="M84.3923 0.438389C83.9556 0.175801 83.4552 0.043335 82.8934 0.043335C82.3733 0.043335 81.8891 0.175801 81.4409 0.438389C80.9926 0.702149 80.6335 1.055 80.3636 1.49695C80.0926 1.93889 79.957 2.44531 79.957 3.01386C79.957 3.54021 80.0926 4.03022 80.3636 4.48388C80.6335 4.93755 80.9926 5.29509 81.4409 5.55768C81.888 5.82144 82.3722 5.95274 82.8934 5.95274C83.4552 5.95274 83.9556 5.82144 84.3923 5.55768C84.829 5.29509 85.1834 4.93638 85.4545 4.48388C85.7244 4.03139 85.8599 3.54138 85.8599 3.01386C85.8599 2.44531 85.7244 1.94006 85.4545 1.49695C85.1834 1.055 84.8301 0.702149 84.3923 0.438389Z"></path></g><g class="logo__text"><path d="M48.106 20.5475H43.4727V41.4947H48.106V20.5475Z"></path><path d="M37.2538 25.2553C36.0075 24.491 34.5387 24.11 32.8475 24.11C31.1563 24.11 29.7154 24.4863 28.4586 25.2377C27.2006 25.9903 26.23 27.0313 25.5442 28.3606C24.8585 29.6912 24.5156 31.235 24.5156 32.9934C24.5156 34.7518 24.8585 36.325 25.5442 37.6438C26.23 38.9626 27.2018 39.986 28.4586 40.7152C29.7154 41.4443 31.1784 41.8089 32.8475 41.8089C34.6765 41.8089 36.2368 41.4326 37.5283 40.6812C38.8199 39.9297 39.8427 38.8477 40.5968 37.4363L37.4762 35.6322C36.9967 36.3496 36.4244 36.951 35.7619 37.4363C35.0982 37.9216 34.1842 38.1655 33.019 38.1655C31.6927 38.1655 30.6467 37.7786 29.881 37.0026C29.215 36.3285 28.8397 35.4329 28.7528 34.3134H41.0763C41.1215 34.1516 41.1504 33.9488 41.162 33.7062C41.1736 33.4635 41.1794 33.215 41.1794 32.9606C41.1794 31.2491 40.8365 29.7287 40.1508 28.397C39.4651 27.0664 38.499 26.0196 37.2538 25.2565V25.2553ZM32.8475 27.6842C34.2642 27.6842 35.3101 28.1356 35.9854 29.037C36.3827 29.5681 36.6596 30.1952 36.8229 30.9115H28.8281C28.9822 30.0909 29.325 29.4016 29.8648 28.8459C30.6189 28.0711 31.6139 27.6831 32.8475 27.6831V27.6842Z"></path><path d="M63.0042 25.2166C61.7508 24.4488 60.274 24.0654 58.5735 24.0654C56.8731 24.0654 55.424 24.4441 54.1603 25.199C52.8954 25.9551 51.9189 27.002 51.2297 28.3395C50.5405 29.6771 50.1953 31.2303 50.1953 32.9981C50.1953 34.7659 50.5405 36.3484 51.2297 37.6743C51.9189 39.0001 52.8954 40.0294 54.1603 40.762C55.424 41.4947 56.8951 41.8616 58.5735 41.8616C60.4118 41.8616 61.9814 41.4842 63.2798 40.7269C64.5783 39.9708 65.6069 38.8829 66.3656 37.4644L63.2277 35.6498C62.7447 36.3707 62.1702 36.9756 61.5041 37.4644C60.8369 37.9533 59.9184 38.1971 58.7461 38.1971C57.4129 38.1971 56.3611 37.8079 55.592 37.0284C54.9225 36.3508 54.5449 35.4493 54.458 34.3239H66.8498C66.8962 34.161 66.924 33.957 66.9355 33.7132C66.9471 33.4694 66.9529 33.2197 66.9529 32.9629C66.9529 31.2421 66.6077 29.7122 65.9185 28.3747C65.2293 27.0371 64.2575 25.9844 63.0053 25.2166H63.0042ZM58.5735 27.6596C59.9983 27.6596 61.0501 28.1133 61.7277 29.0206C62.1273 29.5552 62.4053 30.1847 62.5698 30.9044H54.5321C54.6862 30.0792 55.0314 29.3864 55.5746 28.8284C56.3333 28.05 57.333 27.6596 58.5747 27.6596H58.5735Z"></path><path d="M79.0893 24.4489L75.3722 35.8867L71.5034 24.4489H66.7461L73.227 41.5112H77.5719L83.7435 24.4489H79.0893Z"></path><path d="M108.236 28.6713V24.4488H104.547V20.4362H101.426L99.9609 24.6047L100.03 28.6713V36.0332C100.03 38.0565 100.531 39.5289 101.53 40.4468C102.53 41.3658 103.892 41.8254 105.616 41.8254C106.167 41.8254 106.65 41.7902 107.064 41.721C107.477 41.6507 107.868 41.5464 108.236 41.4069V37.1492C108.006 37.2195 107.741 37.284 107.443 37.3414C107.144 37.4 106.81 37.4293 106.443 37.4293C105.892 37.4293 105.438 37.2605 105.081 36.9229C104.724 36.5853 104.547 36.0449 104.547 35.3005V28.6702H108.236V28.6713Z"></path><path d="M138.313 24.1346C138.014 24.0889 137.68 24.0654 137.313 24.0654C136.578 24.0654 135.871 24.246 135.192 24.6058C134.513 24.9669 133.917 25.3913 133.399 25.8789C133.254 26.0161 133.122 26.1497 132.997 26.281L132.555 24.4476H129.176V41.5099H133.692V29.8529C133.916 29.6173 134.167 29.4133 134.451 29.2457C135.255 28.7697 136.404 28.5306 137.898 28.5306H139.002V24.3784C138.841 24.2624 138.61 24.1815 138.313 24.1346Z"></path><path d="M123.06 25.199C121.739 24.4429 120.204 24.0654 118.457 24.0654C116.71 24.0654 115.175 24.4441 113.854 25.199C112.532 25.9551 111.503 27.002 110.768 28.3395C110.032 29.6771 109.664 31.2303 109.664 32.9981C109.664 34.7659 110.031 36.3191 110.768 37.6567C111.503 38.9943 112.532 40.0411 113.854 40.7972C115.175 41.5533 116.709 41.932 118.457 41.932C120.205 41.932 121.737 41.5533 123.06 40.7972C124.382 40.0411 125.41 38.9943 126.146 37.6567C126.882 36.3191 127.25 34.7671 127.25 32.9981C127.25 31.2292 126.882 29.6782 126.146 28.3395C125.41 27.002 124.382 25.9551 123.06 25.199ZM121.723 36.4938C120.881 37.3953 119.793 37.8466 118.456 37.8466C117.119 37.8466 116.036 37.3953 115.207 36.4938C114.377 35.5923 113.963 34.4142 113.963 32.9618C113.963 31.5093 114.377 30.3382 115.207 29.4485C116.036 28.5599 117.119 28.1144 118.456 28.1144C119.793 28.1144 120.881 28.5658 121.723 29.4672C122.564 30.3687 122.986 31.5468 122.986 32.9993C122.986 34.4517 122.564 35.5923 121.723 36.4938Z"></path><path d="M86.5326 28.6291C87.0956 28.4028 87.6446 28.2329 88.1763 28.1297C88.957 27.9785 89.6705 27.9023 90.3146 27.9023C91.3489 27.9023 92.0949 28.159 92.5559 28.6701C93.0158 29.1824 93.2451 29.7638 93.2451 30.4145V31.5715C92.2246 30.8236 90.903 30.4485 89.2802 30.4485C88.0848 30.4485 87.0156 30.6876 86.0739 31.1635C85.131 31.6406 84.3897 32.3088 83.8499 33.1705C83.309 34.0309 83.0391 35.0437 83.0391 36.2066C83.0391 37.3695 83.2916 38.387 83.7978 39.2592C84.3028 40.1314 85.0268 40.8066 85.9696 41.2825C86.9114 41.7597 88.0037 41.9976 89.2454 41.9976C90.8312 41.9976 92.147 41.6131 93.193 40.8465C93.4177 40.6812 93.6239 40.4995 93.8185 40.3072L94.1764 41.5088H97.7615V30.5528C97.7615 29.2973 97.5078 28.1801 97.0028 27.2036C96.4966 26.2271 95.7379 25.4581 94.7278 24.9001C93.7166 24.3421 92.4401 24.0631 90.9007 24.0631C89.7748 24.0631 88.6535 24.2026 87.5392 24.4816C86.7145 24.6879 85.9256 24.9529 85.1704 25.2729C85.5457 26.1767 86.2476 27.8777 86.5326 28.6267V28.6291ZM92.4864 37.883C91.9802 38.3015 91.3142 38.5113 90.4871 38.5113C89.6601 38.5113 88.9929 38.3026 88.4879 37.883C87.9817 37.4645 87.7292 36.9065 87.7292 36.2078C87.7292 35.5091 87.9817 34.923 88.4879 34.5162C88.9929 34.1094 89.6601 33.9055 90.4871 33.9055C91.3142 33.9055 91.9814 34.1094 92.4864 34.5162C92.9915 34.923 93.2451 35.488 93.2451 36.2078C93.2451 36.9276 92.9915 37.4645 92.4864 37.883Z"></path></g></svg>
